<?xml version="1.0" standalone="no"?>
<!DOCTYPE svg PUBLIC "-//W3C//DTD SVG 20010904//EN"
 "http://www.w3.org/TR/2001/REC-SVG-20010904/DTD/svg10.dtd">
<svg version="1.0" xmlns="http://www.w3.org/2000/svg"
 width="300.000000pt" height="300.000000pt" viewBox="0 0 300.000000 300.000000"
 preserveAspectRatio="xMidYMid meet">
<metadata>
Created by potrace 1.10, written by Peter Selinger 2001-2011
</metadata>
<g transform="translate(0.000000,300.000000) scale(0.050000,-0.050000)"
fill="#32ade9" stroke="none">
<path d="M1480 5807 c-626 -81 -975 -551 -782 -1051 90 -232 182 -266 182 -67
0 778 1140 923 1492 189 64 -134 138 -374 121 -392 -6 -5 -72 6 -147 26 -490
131 -992 2 -1251 -321 -351 -438 -262 -919 230 -1243 165 -108 203 -99 138 36
-286 594 126 1108 683 851 397 -183 546 -483 605 -1217 l13 -172 -297 -12
c-257 -12 -676 -53 -852 -84 -30 -5 -111 -19 -180 -31 -645 -108 -1147 -327
-1234 -536 -16 -39 -21 -202 -17 -532 l6 -476 90 -79 c768 -682 4797 -670
5462 17 l68 69 6 472 c4 328 -1 490 -17 529 -71 171 -423 353 -909 469 -384
92 -882 160 -1335 181 l-275 13 0 82 c0 867 420 1455 968 1354 417 -77 537
-401 329 -885 -61 -142 -31 -155 123 -56 505 327 593 784 239 1253 -236 312
-795 454 -1255 318 -151 -45 -158 -40 -126 93 118 478 418 740 852 743 458 3
703 -212 748 -658 16 -163 67 -167 145 -11 292 584 -153 1128 -923 1128 -443
0 -832 -189 -1207 -588 l-151 -160 -196 197 c-420 422 -883 611 -1346 551z
m550 -196 c281 -98 522 -263 775 -531 217 -230 203 -232 480 46 374 376 644
513 1045 530 529 21 849 -180 921 -581 18 -101 -15 -96 -62 8 -281 621 -1318
537 -1649 -133 -228 -459 -161 -673 180 -579 518 142 989 -18 1196 -407 130
-243 127 -432 -8 -636 -93 -140 -105 -136 -93 28 41 568 -594 880 -1111 545
-369 -239 -564 -701 -564 -1335 l0 -126 -120 0 -120 0 0 109 c0 301 -77 702
-174 908 -376 796 -1496 757 -1496 -54 l0 -206 -57 66 c-220 257 -183 623 93
903 239 242 612 312 1071 201 329 -80 388 206 132 644 -360 613 -1290 668
-1613 95 -74 -130 -84 -132 -67 -11 40 273 212 439 551 534 149 41 549 31 690
-18z m730 -3236 c0 -25 6 -65 13 -90 11 -43 7 -45 -126 -45 -424 -1 -1078 -97
-1431 -210 -1142 -368 -89 -897 1784 -897 2252 0 3093 706 1220 1025 -254 43
-650 82 -838 82 l-122 0 0 65 c1 94 23 121 82 97 26 -10 215 -30 418 -43 301
-20 538 -52 425 -58 -13 0 -53 -18 -88 -40 l-63 -38 108 6 c59 4 140 21 179
38 74 32 347 -12 744 -119 172 -46 169 -56 -20 -90 -125 -21 -141 -28 -85 -34
38 -4 76 -17 83 -29 10 -17 63 -16 196 2 l183 24 137 -89 c119 -77 181 -139
181 -180 0 -6 -101 -13 -225 -16 -216 -6 -225 -8 -231 -51 -7 -45 -4 -45 237
-45 224 0 242 -3 229 -35 -8 -19 -16 -46 -18 -60 -12 -68 -211 -217 -263 -197
-16 6 -72 -6 -124 -27 -52 -22 -77 -39 -56 -40 129 -4 -203 -112 -585 -191
-179 -37 -255 -45 -283 -30 -24 13 -66 13 -115 2 -73 -17 -74 -18 -16 -22 l60
-4 -69 -16 c-392 -92 -2170 -92 -2562 0 l-69 16 60 4 60 4 -69 19 c-46 14 -83
13 -114 -1 -36 -16 -105 -9 -292 29 -374 76 -719 188 -584 189 23 1 3 17 -49
41 -48 22 -105 34 -125 28 -61 -19 -257 124 -269 196 -2 14 -10 41 -18 60 -13
32 5 35 225 35 236 0 240 1 237 45 -2 44 -9 45 -227 51 -124 3 -225 10 -225
16 0 41 62 103 181 180 l137 89 183 -24 c133 -18 186 -19 196 -2 7 12 45 25
83 29 57 6 41 13 -85 36 -233 42 -236 41 343 169 292 65 312 67 380 38 40 -17
122 -34 182 -38 l110 -6 -77 46 c-101 61 -95 63 377 93 209 13 394 32 410 41
52 28 80 18 80 -28z m289 24 c63 34 76 23 79 -73 l2 -76 -115 -6 -115 -6 0 78
c0 93 12 109 61 79 28 -18 48 -17 88 4z m57 -218 c8 0 13 -116 10 -256 l-6
-255 -95 -6 -95 -6 0 271 0 271 85 -9 c47 -5 92 -9 101 -10z m-326 -342 l0
-319 240 0 240 0 0 322 0 322 75 -12 c41 -6 201 -21 355 -33 938 -71 1596
-311 1407 -512 -52 -56 -62 -55 -257 19 -153 58 -292 89 -233 53 20 -13 52
-26 70 -29 18 -3 31 -15 28 -26 -2 -12 13 -18 34 -14 21 4 49 -6 62 -21 13
-16 36 -29 50 -29 48 0 42 -49 -9 -76 -135 -70 -610 -173 -942 -204 -126 -12
-275 -26 -330 -32 -188 -20 -999 -11 -1230 12 -126 13 -243 24 -260 24 -167
-2 -848 150 -938 209 -45 30 -24 83 22 55 9 -6 16 -2 16 9 0 26 94 85 155 96
29 5 66 17 84 27 95 56 -186 -17 -352 -92 -85 -38 -106 -36 -161 15 -213 201
467 446 1438 519 179 13 344 31 366 39 67 24 70 8 70 -322z m-2380 -529 c14
-16 34 -30 46 -30 36 0 314 -144 314 -162 0 -10 19 -18 41 -18 23 0 60 -10 83
-22 22 -12 114 -34 203 -48 90 -14 186 -32 213 -39 28 -7 72 -18 98 -23 27 -5
64 -18 84 -29 19 -10 85 -19 145 -19 61 0 172 -14 247 -32 86 -20 183 -28 263
-21 110 9 122 6 90 -17 -35 -25 -33 -28 23 -50 78 -31 269 -15 298 23 16 22
38 26 82 14 57 -16 672 -9 1130 13 184 8 245 15 380 42 17 4 80 12 140 19 61
8 140 26 176 41 36 14 153 36 260 48 238 26 365 50 381 73 7 9 27 20 43 23 17
3 71 27 120 53 80 42 211 83 241 76 7 -1 42 24 79 55 87 74 83 85 82 -203 -1
-314 -37 -348 -515 -495 -657 -201 -2205 -309 -3057 -213 -827 94 -1235 179
-1537 322 -192 91 -209 115 -224 312 -20 262 8 383 71 307z"/>
<path d="M740 1358 c0 -14 24 -19 60 -14 33 5 60 2 60 -7 0 -10 25 -16 55 -14
47 2 49 4 10 11 -25 5 -45 17 -45 27 0 11 -31 19 -70 19 -38 0 -70 -10 -70
-22z"/>
<path d="M5120 1360 c0 -11 -20 -21 -45 -21 -43 -2 -43 -3 -5 -18 26 -11 47
-8 60 8 13 16 47 22 88 16 47 -7 63 -4 54 12 -18 28 -152 31 -152 3z"/>
<path d="M2380 1900 c0 -8 -34 -11 -75 -7 -50 5 -65 1 -45 -11 17 -10 53 -15
80 -12 28 3 107 6 176 7 79 2 122 11 114 23 -14 23 -250 23 -250 0z"/>
<path d="M3400 1903 c46 -28 338 -41 328 -15 -5 13 -81 24 -183 27 -110 4
-164 -1 -145 -12z"/>
<path d="M2537 1605 c-32 -38 -32 -43 -10 -138 25 -103 90 -118 483 -111 437
7 478 24 475 194 0 22 -1 45 -3 52 -2 9 -51 9 -101 0 -5 -1 9 -15 30 -31 117
-87 -95 -155 -451 -146 -349 9 -499 79 -338 158 57 28 62 36 33 48 -20 7 -50
2 -69 -14 -23 -19 -29 -19 -19 -2 22 37 4 31 -30 -10z"/>
<path d="M371 1173 c-60 -44 -9 -93 96 -93 109 1 151 27 121 74 -28 46 -164
58 -217 19z"/>
<path d="M5278 1088 c-22 -27 -21 -37 12 -60 65 -48 190 -21 190 41 0 56 -158
72 -202 19z"/>
<path d="M1140 945 c-146 -26 -108 -105 51 -105 221 0 241 72 29 109 -16 3
-52 1 -80 -4z"/>
<path d="M4583 938 c-166 -34 -111 -118 77 -118 125 0 207 40 167 81 -34 34
-165 54 -244 37z"/>
<path d="M726 787 c-14 -36 41 -87 93 -87 60 0 126 60 100 92 -34 40 -177 37
-193 -5z"/>
<path d="M4895 747 c-44 -12 -45 -39 -3 -55 91 -35 343 -1 302 41 -18 18 -248
29 -299 14z"/>
<path d="M3646 678 c-154 -45 -83 -118 114 -118 204 0 268 74 104 119 -87 24
-131 24 -218 -1z"/>
<path d="M2881 541 c-50 -31 -6 -49 135 -56 143 -7 219 18 164 55 -38 25 -260
25 -299 1z"/>
<path d="M5894 5407 c-7 -7 -3 -30 9 -52 19 -37 16 -40 -31 -31 -44 9 -52 3
-52 -37 0 -26 9 -47 19 -47 11 0 15 14 8 30 -7 19 1 30 21 30 29 0 41 -24 34
-66 -2 -10 5 -12 14 -7 9 6 14 49 10 96 -7 90 -12 104 -32 84z"/>
<path d="M5951 5141 c-8 -12 -24 -16 -37 -8 -13 7 -17 6 -9 -3 8 -9 6 -26 -4
-39 -12 -14 -12 -34 0 -52 14 -23 18 -19 19 17 0 30 8 41 23 32 14 -8 18 -5
10 7 -7 12 -2 26 12 31 14 4 19 15 12 23 -7 7 -19 4 -26 -8z"/>
<path d="M5844 5032 c8 -9 5 -35 -6 -56 -18 -34 -16 -37 15 -19 40 20 50 23
97 23 17 0 30 14 30 31 0 29 -3 29 -32 -1 -30 -29 -36 -29 -75 4 -24 19 -37
28 -29 18z"/>
<path d="M5903 4858 c-19 -51 -6 -158 20 -158 10 0 12 24 4 53 -11 44 -7 51
20 41 18 -7 33 -5 33 4 0 10 -14 23 -32 30 -18 7 -27 25 -21 42 7 17 7 30 2
30 -6 0 -17 -19 -26 -42z"/>
<path d="M422 4809 c-136 -154 -242 -378 -242 -508 0 -158 166 -348 296 -337
143 12 155 151 36 426 -55 130 -66 268 -30 397 28 103 15 108 -60 22z m57
-649 c0 -148 -161 -33 -182 130 -3 22 7 84 22 137 l27 97 67 -167 c36 -92 66
-180 66 -197z"/>
<path d="M5500 4495 c0 -3 -5 -108 -11 -235 -20 -431 -22 -401 38 -453 191
-164 367 148 233 413 -70 137 -260 338 -260 275z m192 -406 c16 -88 -2 -161
-45 -177 -60 -23 -73 18 -57 181 l14 156 37 -46 c21 -25 44 -77 51 -114z"/>
<path d="M5344 3496 c0 -143 -73 -352 -174 -499 -165 -239 -27 -469 209 -348
223 116 261 404 96 730 -94 187 -131 220 -131 117z m109 -371 c17 -99 15 -155
-7 -205 -7 -16 -14 -34 -15 -40 -8 -33 -56 -102 -65 -93 -6 6 -24 -2 -40 -18
-16 -16 -41 -29 -57 -29 -32 0 -74 68 -54 88 7 7 15 26 17 42 2 17 30 73 62
125 32 52 70 124 84 160 37 90 57 82 75 -30z"/>
</g>
</svg>
